<svg width="19" height="20" viewBox="0 0 19 20" fill="none" xmlns="http://www.w3.org/2000/svg">
<path d="M0 15.2811C0 15.9827 0.538203 16.444 1.45123 16.444H5.50697C5.58386 18.2989 7.03508 19.9232 9.06297 19.9232C11.1005 19.9232 12.5517 18.2989 12.6285 16.444H16.6843C17.5877 16.444 18.1355 15.9827 18.1355 15.2811C18.1355 14.32 17.1553 13.455 16.3287 12.5997C15.6944 11.9366 15.5214 10.5718 15.4445 9.46664C15.4349 8.83227 15.3868 8.24605 15.3292 7.67901C14.8775 7.82317 14.2816 7.90966 13.8106 7.89044C13.8684 8.39982 13.9068 8.94766 13.9164 9.59154C14.0029 11.4657 14.3297 12.7055 15.012 13.4743C15.5214 14.0317 16.0884 14.5988 16.2614 14.8775V14.9928H1.86449V14.8775C2.03749 14.5988 2.61413 14.0317 3.11389 13.4743C3.80586 12.7055 4.13263 11.4657 4.21913 9.59154C4.29601 5.39164 5.54542 4.05574 7.18885 3.60404C7.42912 3.54638 7.56368 3.43104 7.57329 3.18117C7.60212 2.18165 8.17877 1.48006 9.06297 1.48006C9.23594 1.48006 9.3993 1.49928 9.53389 1.55695C9.71653 1.11485 9.95674 0.701586 10.2643 0.336377C9.90868 0.163383 9.50502 0.0672754 9.06297 0.0672754C7.65017 0.0672754 6.61221 1.05718 6.29505 2.3162C3.73859 3.23883 2.75829 5.67997 2.69102 9.46664C2.61413 10.5718 2.44113 11.9366 1.80682 12.5997C0.970685 13.455 0 14.32 0 15.2811ZM7.00625 16.444H11.1293C11.0524 17.7511 10.2259 18.568 9.06297 18.568C7.90966 18.568 7.07353 17.7511 7.00625 16.444ZM13.801 6.66026C15.6175 6.66026 17.136 5.16099 17.136 3.33494C17.136 1.49928 15.6175 0 13.801 0C11.9654 0 10.4661 1.49928 10.4661 3.33494C10.4661 5.16099 11.9654 6.66026 13.801 6.66026Z" fill="white"/>
</svg>
