<svg
    width="330"
    height="203"
    viewBox="0 0 330 203"
    fill="none"
    xmlns="http://www.w3.org/2000/svg"
>
<path
        d="M0 88.2549C0 87.0399 0.984974 86.0549 2.2 86.0549H327.8C329.015 86.0549 330 87.0399 330 88.2549V116.855C330 118.07 329.015 119.055 327.8 119.055H2.2C0.984972 119.055 0 118.07 0 116.855V88.2549Z"
        fill="#E1FFCE"
    />
<path
        d="M4.39991 83.8543C4.39991 82.6393 5.38488 81.6543 6.59991 81.6543H323.4C324.615 81.6543 325.6 82.6393 325.6 83.8543V121.254C325.6 122.469 324.615 123.454 323.4 123.454H6.5999C5.38488 123.454 4.39991 122.469 4.39991 121.254V83.8543Z"
        fill="#E1FFCE"
    />
<path
        d="M11.0001 42.0549C11.0001 38.4098 13.955 35.4549 17.6001 35.4549H35.2001C38.8452 35.4549 39.5 39.0262 39.5 42.6712V160.855C39.5 164.5 38.8452 167.455 35.2001 167.455H17.6001C13.955 167.455 11.0001 164.5 11.0001 160.855V42.0549Z"
        fill="#E1FFCE"
    />
<path
        d="M43.0001 22.2563C43.0001 18.6113 45.9551 15.6563 49.6001 15.6563H65.0001C68.6452 15.6563 71.6001 18.6113 71.6001 22.2563V182.857C71.6001 186.502 68.6452 189.456 65.0001 189.456H49.6001C45.9551 189.456 43.0001 186.502 43.0001 182.857V22.2563Z"
        fill="#E1FFCE"
    />
<path
        d="M75.1734 6.6C75.1734 2.95492 78.1283 0 81.7734 0H97.1734C100.818 0 103.773 2.95492 103.773 6.6V195.8C103.773 199.445 100.818 202.4 97.1734 202.4H81.7734C78.1283 202.4 75.1734 199.445 75.1734 195.8V6.6Z"
        fill="#E1FFCE"
    />
<path d="M105.6 83.856H224.4V94.856H105.6V83.856Z" fill="#E1FFCE" />
<path
        d="M97.8001 81.6564C97.8001 79.2264 99.77 77.2564 102.2 77.2564H104.4C106.83 77.2564 108.8 79.2264 108.8 81.6564V110.255V123.456C108.8 125.886 106.83 127.856 104.4 127.856H102.2C99.7701 127.856 97.8001 125.887 97.8001 123.456V81.6564Z"
        fill="#E1FFCE"
    />
<path
        d="M330 88.2549C330 87.0399 329.015 86.0549 327.8 86.0549H2.2C0.984974 86.0549 0 87.0399 0 88.2549V116.855C0 118.07 0.984972 119.055 2.2 119.055H327.8C329.015 119.055 330 118.07 330 116.855V88.2549Z"
        fill="#E1FFCE"
    />
<path
        d="M325.6 83.8543C325.6 82.6393 324.615 81.6543 323.4 81.6543H6.59991C5.38488 81.6543 4.39991 82.6393 4.39991 83.8543V121.254C4.39991 122.469 5.38488 123.454 6.5999 123.454H323.4C324.615 123.454 325.6 122.469 325.6 121.254V83.8543Z"
        fill="#E1FFCE"
    />
<path
        d="M319 42.0549C319 38.4098 316.045 35.4549 312.4 35.4549H294.8C291.155 35.4549 290.5 39.0262 290.5 42.6712V160.855C290.5 164.5 291.155 167.455 294.8 167.455H312.4C316.045 167.455 319 164.5 319 160.855V42.0549Z"
        fill="#E1FFCE"
    />
<path
        d="M287 22.2563C287 18.6113 284.045 15.6563 280.4 15.6563H265C261.355 15.6563 258.4 18.6113 258.4 22.2563V182.857C258.4 186.502 261.355 189.456 265 189.456H280.4C284.045 189.456 287 186.502 287 182.857V22.2563Z"
        fill="#E1FFCE"
    />
<path
        d="M254.827 6.6C254.827 2.95492 251.872 0 248.227 0H232.827C229.182 0 226.227 2.95492 226.227 6.6V195.8C226.227 199.445 229.182 202.4 232.827 202.4H248.227C251.872 202.4 254.827 199.445 254.827 195.8V6.6Z"
        fill="#E1FFCE"
    />
<path d="M224.4 83.856H105.6V94.856H224.4V83.856Z" fill="#E1FFCE" />
<path
        d="M232.2 81.6564C232.2 79.2264 230.23 77.2564 227.8 77.2564H225.6C223.17 77.2564 221.2 79.2264 221.2 81.6564V110.255V123.456C221.2 125.886 223.17 127.856 225.6 127.856H227.8C230.23 127.856 232.2 125.887 232.2 123.456V81.6564Z"
        fill="#E1FFCE"
    />
<path
        opacity="0.6"
        d="M325.85 119.06V86.0498"
        stroke="black"
        stroke-width="0.5"
    />
<path
        opacity="0.3"
        d="M11.8 46H38.8M11.8 46V51M11.8 46V42C11.8 41.4477 12.2478 41 12.8 41H37.8C38.3523 41 38.8 41.4477 38.8 42V46M38.8 46V51M11.8 51H38.8M11.8 51V56M38.8 51V56M11.8 56H38.8M11.8 56V61M38.8 56V61M11.8 61H38.8M11.8 61V66M38.8 61V66M11.8 66H38.8M11.8 66V71M38.8 66V71M11.8 71H38.8M11.8 71V76M38.8 71V76M11.8 76H38.8M11.8 76V81M38.8 76V81M11.8 81H38.8M11.8 81V86M38.8 81V86M11.8 86H38.8M11.8 86V91M38.8 86V91M11.8 91H38.8M11.8 91V96M38.8 91V96M11.8 96H38.8M11.8 96V101M38.8 96V101M11.8 101H38.8M11.8 101V106M38.8 101V106M11.8 106H38.8M11.8 106V111M38.8 106V111M11.8 111H38.8M11.8 111V116M38.8 111V116M11.8 116H38.8M11.8 116V121M38.8 116V121M11.8 121H38.8M11.8 121V126M38.8 121V126M11.8 126H38.8M11.8 126V131M38.8 126V131M11.8 131H38.8M11.8 131V136M38.8 131V136M11.8 136H38.8M11.8 136V141M38.8 136V141M11.8 141H38.8M11.8 141V146M38.8 141V146M11.8 146H38.8M11.8 146V151M38.8 146V151M11.8 151H38.8M11.8 151V156M38.8 151V156M11.8 156H38.8M11.8 156V160C11.8 160.552 12.2478 161 12.8 161H37.8C38.3523 161 38.8 160.552 38.8 160V156M18 41V161M24.75 41V161M31.5 41V161"
        stroke="black"
        stroke-width="0.5"
    />
<path
        opacity="0.3"
        d="M291.3 46.2002H318.3M291.3 46.2002V51.2002M291.3 46.2002V42.2002C291.3 41.6479 291.748 41.2002 292.3 41.2002H317.3C317.852 41.2002 318.3 41.6479 318.3 42.2002V46.2002M318.3 46.2002V51.2002M291.3 51.2002H318.3M291.3 51.2002V56.2002M318.3 51.2002V56.2002M291.3 56.2002H318.3M291.3 56.2002V61.2002M318.3 56.2002V61.2002M291.3 61.2002H318.3M291.3 61.2002V66.2002M318.3 61.2002V66.2002M291.3 66.2002H318.3M291.3 66.2002V71.2002M318.3 66.2002V71.2002M291.3 71.2002H318.3M291.3 71.2002V76.2002M318.3 71.2002V76.2002M291.3 76.2002H318.3M291.3 76.2002V81.2002M318.3 76.2002V81.2002M291.3 81.2002H318.3M291.3 81.2002V86.2002M318.3 81.2002V86.2002M291.3 86.2002H318.3M291.3 86.2002V91.2002M318.3 86.2002V91.2002M291.3 91.2002H318.3M291.3 91.2002V96.2002M318.3 91.2002V96.2002M291.3 96.2002H318.3M291.3 96.2002V101.2M318.3 96.2002V101.2M291.3 101.2H318.3M291.3 101.2V106.2M318.3 101.2V106.2M291.3 106.2H318.3M291.3 106.2V111.2M318.3 106.2V111.2M291.3 111.2H318.3M291.3 111.2V116.2M318.3 111.2V116.2M291.3 116.2H318.3M291.3 116.2V121.2M318.3 116.2V121.2M291.3 121.2H318.3M291.3 121.2V126.2M318.3 121.2V126.2M291.3 126.2H318.3M291.3 126.2V131.2M318.3 126.2V131.2M291.3 131.2H318.3M291.3 131.2V136.2M318.3 131.2V136.2M291.3 136.2H318.3M291.3 136.2V141.2M318.3 136.2V141.2M291.3 141.2H318.3M291.3 141.2V146.2M318.3 141.2V146.2M291.3 146.2H318.3M291.3 146.2V151.2M318.3 146.2V151.2M291.3 151.2H318.3M291.3 151.2V156.2M318.3 151.2V156.2M291.3 156.2H318.3M291.3 156.2V160.2C291.3 160.752 291.748 161.2 292.3 161.2H317.3C317.852 161.2 318.3 160.752 318.3 160.2V156.2M297.5 41.2002V161.2M304.25 41.2002V161.2M311 41.2002V161.2"
        stroke="black"
        stroke-width="0.5"
    />
<path d="M108.8 118.5H221.2" stroke="black" stroke-width="0.5" />
<path d="M108.8 111H221.2" stroke="black" stroke-width="0.5" />
<path d="M108.8 93H221.2" stroke="black" stroke-width="0.5" />
<path d="M108.8 89H221.2" stroke="black" stroke-width="0.5" />
<path d="M108.8 85H221.2" stroke="black" stroke-width="0.5" />
<path
        opacity="0.6"
        d="M109.05 123.46V81.6504"
        stroke="black"
        stroke-width="0.5"
    />
<path
        opacity="0.6"
        d="M220.95 123.46V81.6504"
        stroke="black"
        stroke-width="0.5"
    />
<path
        opacity="0.3"
        d="M43.3 21.2002H71.3M43.3 26.2002H71.3M43.3 31.2002H71.3M43.3 36.2002H71.3M43.3 41.2002H71.3M43.3 46.2002H71.3M43.3 51.2002H71.3M43.3 56.2002H71.3M43.3 61.2002H71.3M43.3 66.2002H71.3M43.3 71.2002H71.3M43.3 76.2002H71.3M43.3 81.2002H71.3M43.3 86.2002H71.3M43.3 91.2002H71.3M43.3 96.2002H71.3M43.3 101.2H71.3M43.3 106.2H71.3M43.3 111.2H71.3M43.3 116.2H71.3M43.3 121.2H71.3M43.3 126.2H71.3M43.3 131.2H71.3M43.3 136.2H71.3M43.3 141.2H71.3M43.3 146.2H71.3M43.3 151.2H71.3M43.3 156.2H71.3M43.3 161.2H71.3M43.3 166.2H71.3M43.3 171.2H71.3M43.3 176.2H71.3M43.3 181.2H71.3M43.55 181V21M50.55 181V21M57.55 181V21M64.55 181V21M71.05 181V21"
        stroke="black"
        stroke-width="0.5"
    />
<path
        opacity="0.3"
        d="M258.7 21.3003H286.7M258.7 26.3003H286.7M258.7 31.3003H286.7M258.7 36.3003H286.7M258.7 41.3003H286.7M258.7 46.3003H286.7M258.7 51.3003H286.7M258.7 56.3003H286.7M258.7 61.3003H286.7M258.7 66.3003H286.7M258.7 71.3003H286.7M258.7 76.3003H286.7M258.7 81.3003H286.7M258.7 86.3003H286.7M258.7 91.3003H286.7M258.7 96.3003H286.7M258.7 101.3H286.7M258.7 106.3H286.7M258.7 111.3H286.7M258.7 116.3H286.7M258.7 121.3H286.7M258.7 126.3H286.7M258.7 131.3H286.7M258.7 136.3H286.7M258.7 141.3H286.7M258.7 146.3H286.7M258.7 151.3H286.7M258.7 156.3H286.7M258.7 161.3H286.7M258.7 166.3H286.7M258.7 171.3H286.7M258.7 176.3H286.7M258.7 181.3H286.7M258.95 181.1V21.1001M265.95 181.1V21.1001M272.95 181.1V21.1001M279.95 181.1V21.1001M286.45 181.1V21.1001"
        stroke="black"
        stroke-width="0.5"
    />
<path
        opacity="0.3"
        d="M76 11.2002H103M76 11.2002V7.2002C76 6.64791 76.4477 6.2002 77 6.2002H102C102.552 6.2002 103 6.64791 103 7.2002V11.2002M76 11.2002V16.2002M103 11.2002V16.2002M76 16.2002H103M76 16.2002V21.2002M103 16.2002V21.2002M76 21.2002H103M76 21.2002V26.2002M103 21.2002V26.2002M76 26.2002H103M76 26.2002V31.2002M103 26.2002V31.2002M76 31.2002H103M76 31.2002V36.2002M103 31.2002V36.2002M76 36.2002H103M76 36.2002V41.2002M103 36.2002V41.2002M76 41.2002H103M76 41.2002V46.2002M103 41.2002V46.2002M76 46.2002H103M76 46.2002V51.2002M103 46.2002V51.2002M76 51.2002H103M76 51.2002V56.2002M103 51.2002V56.2002M76 56.2002H103M76 56.2002V61.2002M103 56.2002V61.2002M76 61.2002H103M76 61.2002V66.2002M103 61.2002V66.2002M76 66.2002H103M76 66.2002V71.2002M103 66.2002V71.2002M76 71.2002H103M76 71.2002V76.2002M103 71.2002V76.2002M76 76.2002H103M76 76.2002V81.2002M103 76.2002V81.2002M76 81.2002H103M76 81.2002V86.2002M103 81.2002V86.2002M76 86.2002H103M76 86.2002V91.2002M103 86.2002V91.2002M76 91.2002H103M76 91.2002V96.2002M103 91.2002V96.2002M76 96.2002H103M76 96.2002V101.2M103 96.2002V101.2M76 101.2H103M76 101.2V106.2M103 101.2V106.2M76 106.2H103M76 106.2V111.2M103 106.2V111.2M76 111.2H103M76 111.2V116.2M103 111.2V116.2M76 116.2H103M76 116.2V121.2M103 116.2V121.2M76 121.2H103M76 121.2V126.2M103 121.2V126.2M76 126.2H103M76 126.2V131.2M103 126.2V131.2M76 131.2H103M76 131.2V136.2M103 131.2V136.2M76 136.2H103M76 136.2V141.2M103 136.2V141.2M76 141.2H103M76 141.2V146.2M103 141.2V146.2M76 146.2H103M76 146.2V151.2M103 146.2V151.2M76 151.2H103M76 151.2V156.2M103 151.2V156.2M76 156.2H103M76 156.2V161.2M103 156.2V161.2M76 161.2H103M76 161.2V166.2M103 161.2V166.2M76 166.2H103M76 166.2V171.2M103 166.2V171.2M76 171.2H103M76 171.2V176.2M103 171.2V176.2M76 176.2H103M76 176.2V181.2M103 176.2V181.2M76 181.2H103M76 181.2V186.2M103 181.2V186.2M76 186.2H103M76 186.2V191.2M103 186.2V191.2M76 191.2H103M76 191.2V195.2C76 195.752 76.4477 196.2 77 196.2H102C102.552 196.2 103 195.752 103 195.2V191.2M82.8 6.5V196M89.5 6.5V196M96.2 6.5V196"
        stroke="black"
        stroke-width="0.5"
    />
<path
        opacity="0.3"
        d="M227 11.2002H254M227 11.2002V7.2002C227 6.64791 227.448 6.2002 228 6.2002H253C253.552 6.2002 254 6.64791 254 7.2002V11.2002M227 11.2002V16.2002M254 11.2002V16.2002M227 16.2002H254M227 16.2002V21.2002M254 16.2002V21.2002M227 21.2002H254M227 21.2002V26.2002M254 21.2002V26.2002M227 26.2002H254M227 26.2002V31.2002M254 26.2002V31.2002M227 31.2002H254M227 31.2002V36.2002M254 31.2002V36.2002M227 36.2002H254M227 36.2002V41.2002M254 36.2002V41.2002M227 41.2002H254M227 41.2002V46.2002M254 41.2002V46.2002M227 46.2002H254M227 46.2002V51.2002M254 46.2002V51.2002M227 51.2002H254M227 51.2002V56.2002M254 51.2002V56.2002M227 56.2002H254M227 56.2002V61.2002M254 56.2002V61.2002M227 61.2002H254M227 61.2002V66.2002M254 61.2002V66.2002M227 66.2002H254M227 66.2002V71.2002M254 66.2002V71.2002M227 71.2002H254M227 71.2002V76.2002M254 71.2002V76.2002M227 76.2002H254M227 76.2002V81.2002M254 76.2002V81.2002M227 81.2002H254M227 81.2002V86.2002M254 81.2002V86.2002M227 86.2002H254M227 86.2002V91.2002M254 86.2002V91.2002M227 91.2002H254M227 91.2002V96.2002M254 91.2002V96.2002M227 96.2002H254M227 96.2002V101.2M254 96.2002V101.2M227 101.2H254M227 101.2V106.2M254 101.2V106.2M227 106.2H254M227 106.2V111.2M254 106.2V111.2M227 111.2H254M227 111.2V116.2M254 111.2V116.2M227 116.2H254M227 116.2V121.2M254 116.2V121.2M227 121.2H254M227 121.2V126.2M254 121.2V126.2M227 126.2H254M227 126.2V131.2M254 126.2V131.2M227 131.2H254M227 131.2V136.2M254 131.2V136.2M227 136.2H254M227 136.2V141.2M254 136.2V141.2M227 141.2H254M227 141.2V146.2M254 141.2V146.2M227 146.2H254M227 146.2V151.2M254 146.2V151.2M227 151.2H254M227 151.2V156.2M254 151.2V156.2M227 156.2H254M227 156.2V161.2M254 156.2V161.2M227 161.2H254M227 161.2V166.2M254 161.2V166.2M227 166.2H254M227 166.2V171.2M254 166.2V171.2M227 171.2H254M227 171.2V176.2M254 171.2V176.2M227 176.2H254M227 176.2V181.2M254 176.2V181.2M227 181.2H254M227 181.2V186.2M254 181.2V186.2M227 186.2H254M227 186.2V191.2M254 186.2V191.2M227 191.2H254M227 191.2V195.2C227 195.752 227.448 196.2 228 196.2H253C253.552 196.2 254 195.752 254 195.2V191.2M233.8 6.5V196M240.5 6.5V196M247.2 6.5V196"
        stroke="black"
        stroke-width="0.5"
    />
<path
        opacity="0.6"
        d="M4.15002 119.06V86.0498"
        stroke="black"
        stroke-width="0.5"
    />
</svg>
